           Thor.2011.BRRip.XviD-RLF
           ~~~~~~~~~~~~~~~~~~~~~~~~

               DO U THINK SO :)
                                            
General:


Complete name                    : rlf-thor.avi
Format                           : AVI
Format/Info                      : Audio Video Interleave
File size                        : 715 MiB
Duration                         : 1h 54mn 
Overall bit rate                 : 871 Kbps
Language                         : English
Subs                             : Polish , English
Encoder                          : Ralf

Video:

                     
Format                           : MPEG-4 Visual
Format profile                   : Advanced Simple@L5
Format settings, BVOP            : 2
Format settings, QPel            : No
Format settings, GMC             : No warppoints
Format settings, Matrix          : H.263
Muxing mode                      : Packed bitstream
Codec ID                         : XVID
Duration                         : 1h 54mn
Bit rate                         : 730 Kbps
Width                            : 688 pixels
Height                           : 288 pixels
Display aspect ratio             : 2.35:1
Frame rate                       : 23.976 fps
Color space                      : YUV
Chroma subsampling               : 4:2:0
Bit depth                        : 8 bits
Scan type                        : Progressive
Bits/(Pixel*Frame)               : 0.154
Stream size                      : 600 MiB (84%)

Audio:


Format                           : MPEG Audio
Format profile                   : Layer 3
Codec ID/Hint                    : MP3
Duration                         : 1h 54mn
Bit rate mode                    : Constant
Bit rate                         : 128 Kbps
Channel(s)                       : 2 channels
Sampling rate                    : 48.0 KHz
Stream size                      : 105 MiB (15%)
Alignment                        : Split accross interleaves
Interleave, duration             : 24 ms (0.58 video frame)


 


MOVIE INFO:

           
The powerful but arrogant warrior Thor is cast out of the fantastic realm of 
Asgard and sent to live amongst  humans on Earth, where  he soon becomes one 
                       of their finest defenders.

                                 
http://www.imdb.com/title/tt0800369/  
http://www.filmweb.pl/film/Thor-2011-325418
                                             

SOURCE:

Felony 720p.BluRay.x264 (THX)


iNTERNAL NOTES:

Previous release had crapy quality and pl subs was not 100% synh
First i changed the resolution, add some colours and put some nice 
filters size is bad (LOL 4 hours work) PL subs are from trusted 
source nice synh but fanmade because there is no retail release in 
Poland right now.

LOL !!!!

and we all know why iNTERNAL

still do not know why I do it